<?xml version="1.0" standalone="no"?>
<!DOCTYPE svg PUBLIC "-//W3C//DTD SVG 20010904//EN"
 "http://www.w3.org/TR/2001/REC-SVG-20010904/DTD/svg10.dtd">
<svg version="1.0" xmlns="http://www.w3.org/2000/svg"
 width="800.000000pt" height="800.000000pt" viewBox="0 0 800.000000 800.000000"
 preserveAspectRatio="xMidYMid meet">
<metadata>
Created by potrace 1.11, written by Peter Selinger 2001-2013
</metadata>
<g transform="translate(0.000000,800.000000) scale(0.100000,-0.100000)"
fill="#000000" stroke="none">
<path d="M3490 7944 c-92 -30 -160 -92 -188 -171 -29 -83 -7 -199 51 -262 12
-13 72 -56 132 -96 263 -172 437 -373 590 -684 89 -180 166 -422 191 -606 4
-22 7 -44 8 -48 0 -5 -30 -18 -69 -31 -252 -82 -433 -273 -500 -526 -22 -80
-24 -240 -6 -330 19 -92 99 -253 163 -326 90 -103 195 -172 335 -221 70 -24
92 -27 218 -27 156 0 209 11 329 70 402 201 532 707 276 1079 -35 51 -123 139
-175 175 -87 60 -221 115 -315 129 -3 1 -5 36 -6 79 0 86 -13 273 -19 282 -2
3 -6 28 -9 56 -3 27 -8 60 -11 74 -7 37 -25 122 -31 150 -31 145 -132 414
-211 560 -102 188 -254 382 -406 517 -105 94 -120 106 -174 134 -53 28 -127
37 -173 23z"/>
<path d="M6055 6010 c-181 -40 -326 -72 -420 -95 -55 -13 -157 -36 -226 -51
l-127 -27 33 -66 c68 -137 97 -256 99 -406 2 -156 -12 -237 -61 -370 -189
-504 -750 -771 -1256 -596 -397 137 -678 522 -673 921 l1 92 -35 -5 c-19 -3
-44 -8 -55 -10 -11 -3 -162 -37 -335 -76 -173 -39 -375 -84 -448 -101 -73 -16
-147 -32 -164 -35 -17 -3 -34 -8 -38 -10 -3 -2 -18 -6 -32 -9 -14 -2 -138 -29
-276 -61 -138 -31 -260 -58 -271 -60 -12 -3 -29 -7 -39 -9 -122 -28 -381 -87
-397 -90 -11 -2 -51 -12 -90 -21 -38 -9 -80 -19 -93 -21 -131 -26 -280 -144
-348 -277 -67 -130 -62 -13 -63 -1773 -1 -1730 -3 -1681 51 -1814 42 -105 136
-240 200 -288 9 -7 23 -19 31 -26 26 -26 126 -86 179 -107 93 -37 150 -50 298
-64 36 -4 81 -8 100 -10 19 -2 67 -7 105 -11 39 -3 81 -8 95 -9 14 -1 61 -6
105 -9 44 -4 91 -9 105 -11 14 -2 63 -7 110 -11 47 -3 92 -7 100 -9 8 -2 53
-6 100 -10 47 -4 92 -8 100 -10 8 -2 53 -6 100 -10 47 -4 96 -9 110 -10 14 -2
54 -6 90 -9 36 -3 85 -9 110 -11 25 -3 70 -7 100 -10 92 -8 173 -16 210 -20
19 -2 64 -7 100 -10 36 -3 81 -8 100 -10 19 -2 62 -7 95 -10 88 -8 148 -14
265 -25 58 -6 130 -13 160 -15 30 -3 71 -8 90 -10 19 -2 67 -7 105 -10 39 -3
88 -8 110 -10 22 -3 66 -7 98 -10 32 -3 77 -7 100 -10 23 -2 71 -7 107 -10
100 -9 227 -21 305 -30 42 -5 109 -11 210 -20 33 -3 78 -7 100 -10 39 -4 98
-10 208 -20 28 -2 75 -7 102 -10 59 -6 116 -11 205 -20 36 -3 81 -8 100 -10
43 -5 137 -14 206 -20 28 -2 71 -6 95 -9 24 -3 96 -10 159 -16 63 -6 135 -13
160 -16 103 -13 271 -12 332 2 297 67 516 279 587 570 19 76 19 136 20 1775 1
1100 -2 1714 -9 1749 -8 44 -66 217 -103 310 -6 14 -11 30 -12 35 -2 6 -19 53
-38 105 -19 52 -56 154 -82 225 -25 72 -52 146 -60 165 -16 42 -44 119 -78
215 -27 74 -137 379 -165 454 -24 67 -83 151 -142 204 -137 123 -310 163 -515
117z m-4555 -1805 c36 -3 81 -8 100 -10 19 -2 69 -7 110 -10 41 -4 91 -8 110
-10 19 -2 64 -7 100 -10 36 -3 76 -8 90 -10 14 -2 59 -7 100 -10 41 -4 91 -8
110 -10 19 -2 67 -6 105 -9 39 -3 86 -8 105 -11 36 -5 101 -11 205 -20 72 -6
159 -15 200 -20 17 -2 59 -7 95 -10 36 -3 88 -8 115 -10 28 -3 75 -7 105 -10
30 -2 80 -7 110 -10 109 -12 136 -14 205 -20 39 -3 86 -8 106 -11 41 -5 84
-10 184 -18 39 -4 88 -9 110 -11 22 -3 67 -7 100 -10 33 -3 78 -8 100 -10 22
-2 72 -7 110 -10 39 -3 84 -8 100 -10 27 -3 123 -13 210 -20 17 -1 55 -5 85
-8 30 -4 87 -9 125 -12 39 -3 81 -8 95 -10 14 -2 57 -7 95 -10 39 -3 88 -8
110 -10 22 -2 72 -7 110 -10 39 -3 86 -8 105 -10 19 -3 62 -7 95 -10 33 -3 76
-8 95 -10 19 -2 69 -7 110 -10 41 -3 90 -8 107 -11 18 -2 65 -6 105 -9 40 -3
84 -8 98 -10 14 -2 59 -7 100 -10 41 -3 86 -8 100 -10 14 -2 59 -7 100 -10 41
-4 89 -8 105 -11 17 -2 66 -6 110 -9 44 -4 91 -8 105 -11 14 -2 59 -6 100 -10
96 -7 131 -18 161 -50 l24 -26 3 -644 c2 -519 0 -644 -10 -644 -7 0 -36 -15
-64 -34 -136 -92 -286 -77 -394 40 -111 118 -220 214 -245 214 -4 0 -19 8 -33
19 -35 23 -144 67 -207 82 -153 35 -310 31 -450 -11 -78 -24 -218 -95 -273
-139 -72 -56 -101 -66 -192 -66 -100 0 -158 22 -211 82 -176 194 -322 288
-515 328 -248 53 -486 1 -700 -151 -105 -75 -187 -91 -295 -57 -46 14 -69 32
-149 112 -115 116 -165 157 -250 203 -280 154 -635 134 -898 -48 -112 -78
-139 -89 -222 -89 -102 0 -140 16 -218 90 -37 34 -82 70 -99 79 l-33 17 0 553
0 553 23 33 c24 36 77 61 117 55 14 -2 54 -7 90 -10z m982 -1697 c39 -21 79
-55 125 -108 113 -127 265 -223 423 -266 99 -26 284 -28 388 -4 103 25 213 75
298 135 98 71 146 89 234 89 112 0 167 -29 277 -145 192 -201 357 -278 608
-285 112 -3 143 0 221 20 102 27 216 80 289 135 85 64 129 81 220 86 47 2 116
-15 164 -39 32 -17 50 -34 151 -141 155 -164 368 -256 591 -256 74 0 228 23
251 37 14 9 10 -964 -4 -1010 -8 -25 -31 -59 -58 -87 -68 -68 -124 -77 -320
-54 -74 9 -251 26 -417 40 -32 3 -74 7 -93 10 -19 2 -66 7 -105 10 -38 3 -81
7 -95 9 -14 3 -59 7 -100 11 -41 3 -93 8 -115 10 -128 13 -164 16 -200 20 -22
2 -92 9 -155 15 -63 6 -135 13 -160 15 -25 3 -70 7 -100 10 -30 3 -73 7 -95
10 -22 2 -71 7 -110 10 -38 3 -89 8 -112 11 -23 2 -68 7 -100 9 -32 3 -76 7
-98 10 -65 7 -136 15 -200 20 -70 6 -157 14 -200 20 -16 2 -66 7 -110 10 -44
3 -97 8 -118 11 -21 3 -61 7 -90 9 -58 5 -133 12 -307 30 -25 3 -72 7 -105 10
-33 4 -76 8 -95 10 -19 2 -71 6 -115 10 -44 4 -91 8 -105 10 -14 2 -56 7 -95
10 -38 3 -86 8 -105 10 -32 4 -58 6 -195 20 -22 2 -94 8 -160 15 -178 16 -216
20 -255 25 -19 2 -66 7 -105 10 -38 3 -83 7 -100 10 -16 2 -64 6 -105 10 -41
3 -86 8 -100 10 -14 2 -59 7 -100 10 -89 8 -133 25 -179 68 -73 69 -71 47 -71
668 l0 557 84 -29 c240 -83 509 -48 720 93 43 29 90 60 104 67 90 50 210 49
304 -1z"/>
</g>
</svg>
