<?xml version="1.0" encoding="utf-8"?>
<!-- Generator: Adobe Illustrator 16.2.0, SVG Export Plug-In . SVG Version: 6.00 Build 0)  -->
<!DOCTYPE svg PUBLIC "-//W3C//DTD SVG 1.1//EN" "http://www.w3.org/Graphics/SVG/1.1/DTD/svg11.dtd">
<svg version="1.1" id="Layer_1" xmlns="http://www.w3.org/2000/svg" xmlns:xlink="http://www.w3.org/1999/xlink" x="0px" y="0px"
	 width="48px" height="48px" viewBox="0 0 48 48" enable-background="new 0 0 48 48" xml:space="preserve">
<path fill="none" d="M0,0h48v48H0V0z"/>
<path fill="#A55278" d="M14.837,17.885c0.65,6.317,3.305,12.303,7.559,17.029l5.692-2.531c0.711-0.316,1.506-0.181,2.068,0.273
	c1.826,1.495,3.93,2.736,6.254,3.633c1.035,0.398,1.546,1.549,1.146,2.584l-2.519,6.532c-0.399,1.036-1.55,1.546-2.585,1.146
	C14.93,39.796,6.204,20.119,12.961,2.596c0.399-1.036,1.56-1.542,2.586-1.146l6.531,2.519c1.036,0.398,1.547,1.549,1.147,2.585
	c-0.896,2.324-1.39,4.715-1.505,7.072c-0.043,0.724-0.476,1.402-1.187,1.718L14.837,17.885z"/>
</svg>
