<?xml version="1.0" encoding="UTF-8" standalone="no"?>
<!-- Generator: Adobe Illustrator 16.0.0, SVG Export Plug-In . SVG Version: 6.00 Build 0)  -->

<svg
   xmlns:dc="http://purl.org/dc/elements/1.1/"
   xmlns:cc="http://creativecommons.org/ns#"
   xmlns:rdf="http://www.w3.org/1999/02/22-rdf-syntax-ns#"
   xmlns:svg="http://www.w3.org/2000/svg"
   xmlns="http://www.w3.org/2000/svg"
   xmlns:sodipodi="http://sodipodi.sourceforge.net/DTD/sodipodi-0.dtd"
   xmlns:inkscape="http://www.inkscape.org/namespaces/inkscape"
   version="1.1"
   id="Layer_1"
   x="0px"
   y="0px"
   width="38.218739"
   height="37.986671"
   viewBox="0 0 38.218739 37.986671"
   enable-background="new 0 0 512 512"
   xml:space="preserve"
   inkscape:version="0.91pre3 r13670"
   sodipodi:docname="icon-map-cake.svg"
   shape-rendering="crispEdges"><metadata
     id="metadata13"><rdf:RDF><cc:Work
         rdf:about=""><dc:format>image/svg+xml</dc:format><dc:type
           rdf:resource="http://purl.org/dc/dcmitype/StillImage" /><dc:title></dc:title></cc:Work></rdf:RDF></metadata><defs
     id="defs11" /><sodipodi:namedview
     pagecolor="#ffffff"
     bordercolor="#666666"
     borderopacity="0"
     objecttolerance="10"
     gridtolerance="10"
     guidetolerance="10"
     inkscape:pageopacity="0"
     inkscape:pageshadow="2"
     inkscape:window-width="1920"
     inkscape:window-height="1017"
     id="namedview9"
     showgrid="false"
     fit-margin-top="0"
     fit-margin-left="0"
     fit-margin-right="0"
     fit-margin-bottom="0"
     inkscape:zoom="1.1089328"
     inkscape:cx="16.14872"
     inkscape:cy="-94.93248"
     inkscape:window-x="-4"
     inkscape:window-y="-4"
     inkscape:window-maximized="1"
     inkscape:current-layer="g3" /><g
     id="g3"
     transform="translate(-234.19635,-234.22652)"><path
       d="m 272.22829,252.26361 -3.00569,-6.73122 c -0.5373,-1.20257 -2.09357,-1.89351 -3.63165,-1.6113 l -4.76333,0.8716 c 0.48886,0.69371 0.79052,1.48532 0.79052,2.33993 0,2.62142 -2.62897,4.75308 -5.86033,4.75308 -3.23043,0 -5.85885,-2.13166 -5.85885,-4.75308 0,-0.11913 0.0326,-0.23085 0.0432,-0.34777 l -13.24611,2.42428 c -1.46173,0.26755 -2.4997,1.32049 -2.4997,2.5366 l 0,14.53994 c 0,1.86669 1.72715,3.41047 4.01742,3.59207 l 29.32151,2.31945 c 0.14286,0.0101 0.286,0.016 0.42888,0.016 1.10771,0 2.16983,-0.33252 2.98996,-0.93506 0.92845,-0.68237 1.46097,-1.65676 1.46097,-2.67416 l 0,-15.47762 c 0,-0.2945 -0.0635,-0.58779 -0.1868,-0.86397 z m -34.69841,0.38416 c 0.14897,-0.11036 0.34871,-0.16319 0.54997,-0.14727 l 30.59112,2.41879 c 0.36609,0.0295 0.64531,0.27856 0.64531,0.57807 l 0,5.84601 c -0.14853,0.0451 -0.29701,0.0931 -0.42748,0.17725 -0.35251,0.2282 -0.811,0.33612 -1.26187,0.29202 -0.46454,-0.0467 -0.87843,-0.23431 -1.16676,-0.52889 l -0.1059,-0.10433 c -0.81491,-0.78427 -1.99053,-1.29964 -3.25026,-1.41989 -1.25963,-0.12387 -2.49131,0.13853 -3.50963,0.72898 l -0.20203,0.12258 c -0.35931,0.23191 -0.80804,0.33992 -1.26793,0.28961 -0.4328,-0.0417 -0.82013,-0.20619 -1.10092,-0.46509 l -0.0611,-0.0627 c -1.71823,-1.7636 -4.88979,-2.06544 -7.06567,-0.67377 l -0.0741,0.0477 c -0.35177,0.20139 -0.77778,0.28968 -1.21355,0.24438 -0.44619,-0.0407 -0.86325,-0.22952 -1.14609,-0.52164 -0.83298,-0.85649 -2.02539,-1.39776 -3.36054,-1.52657 -1.31952,-0.1253 -2.66774,0.18521 -3.70877,0.85039 -0.36396,0.23323 -0.81939,0.33263 -1.27331,0.29328 -0.45777,-0.0427 -0.86709,-0.22952 -1.15375,-0.52406 -0.17984,-0.18469 -0.41826,-0.29676 -0.67102,-0.37481 l 0,-5.11077 c -1.9e-4,-0.16451 0.0853,-0.32032 0.2344,-0.42949 z m 31.34383,16.76867 c -0.24978,0.18388 -0.57278,0.2846 -0.90953,0.2846 l -29.4493,-2.32434 c -0.69524,-0.0552 -1.21959,-0.52406 -1.21959,-1.09103 l 0,-5.05894 c 1.5991,0.59976 3.54328,0.48356 5.02362,-0.46099 0.39639,-0.25526 0.91776,-0.37434 1.42011,-0.32645 0.51214,0.0491 0.97053,0.25765 1.28915,0.58538 0.79069,0.81609 1.96932,1.34989 3.21916,1.4629 1.28254,0.1289 2.54591,-0.15947 3.56489,-0.80988 l 0.0857,-0.0542 c 0.80728,-0.46402 1.92703,-0.35591 2.57692,0.25287 l 0.0559,0.0576 c 0.79675,0.81841 1.9421,1.33884 3.22828,1.46272 1.20302,0.11309 2.38693,-0.13135 3.36212,-0.69704 l 0.1992,-0.11913 c 0.40394,-0.25898 0.90936,-0.37177 1.42011,-0.32519 0.50386,0.048 0.97056,0.25899 1.28161,0.58051 l 0.11355,0.11036 c 0.79061,0.75722 1.89144,1.23833 3.1223,1.36099 0.18527,0.0159 0.37057,0.0266 0.55612,0.0266 0.51194,0 1.01878,-0.0714 1.5025,-0.199 l 0,4.47089 c -1.8e-4,0.30915 -0.16114,0.60503 -0.44267,0.81123 z"
       id="path5"
       style="fill:#3b2314;fill-opacity:1"
       inkscape:connector-curvature="0" /><path
       d="m 249.92924,237.09417 c 4.4786,2.04973 4.99568,6.60758 4.99614,6.6106 -1.97891,0.31579 -3.47696,1.73125 -3.47696,3.4279 0,1.92797 1.93289,3.49644 4.30939,3.49644 2.37715,0 4.31088,-1.56841 4.31088,-3.49644 0,-1.75617 -1.60983,-3.19982 -3.69256,-3.44552 7.4e-4,-0.0319 0.41724,-5.63082 -4.95789,-8.79709 -0.75045,-0.33378 -1.69306,-0.11036 -2.10322,0.49824 -0.41174,0.60865 -0.14244,1.35955 0.61422,1.70587 z"
       id="path7"
       style="fill:#f50061;fill-opacity:1;stroke:#f50061;stroke-width:1;stroke-miterlimit:37.19999695;stroke-dasharray:none;stroke-opacity:1"
       inkscape:connector-curvature="0" /></g></svg>