<?xml version="1.0" encoding="utf-8"?>
<!-- Generator: Adobe Illustrator 16.2.0, SVG Export Plug-In . SVG Version: 6.00 Build 0)  -->
<!DOCTYPE svg PUBLIC "-//W3C//DTD SVG 1.1//EN" "http://www.w3.org/Graphics/SVG/1.1/DTD/svg11.dtd">
<svg version="1.1" id="Layer_1" xmlns="http://www.w3.org/2000/svg" xmlns:xlink="http://www.w3.org/1999/xlink" x="0px" y="0px"
	 width="185.25px" height="50.737px" viewBox="0 0 185.25 50.737" enable-background="new 0 0 185.25 50.737" xml:space="preserve">
<g>
	<path fill="#3C2415" d="M38.917,43.741l0.7,0.483c0.33-0.122,0.665-0.233,1-0.339l-1-0.685l-1.025-0.706l-1.04-0.64l-1.037-0.638
		l-1.037-0.646l-1.047-0.576l-1.05-0.577l-1.11-0.587l-1.129-0.523l-1.055-0.513l-1.137-0.457l-1.203-0.472l-1.135-0.462
		l-2.427-0.81l-1.275-0.417l-1.288-0.354l-1.425-0.376l-1.428-0.31l-1.507-0.259l-1.521-0.193l-1.53-0.132l-1.539-0.061
		l-1.549-0.003l-1.51,0.137l-1.457,0.216l-1.399,0.29l-1.301,0.505l-1.243,0.576l-1.15,0.799l-1.028,0.885l-0.931,1.097
		l-0.579,1.022l-0.362,0.931L0,40.916l0.066,0.801l0.26,0.839l0.338,0.788l0.558,0.691l0.632,0.635l0.698,0.649l0.785,0.531
		l0.796,0.471l0.799,0.464l0.875,0.416l0.754,0.328l0.764,0.262l0.698,0.252l0.698,0.256l0.713,0.183l0.707,0.19l0.722,0.121
		l0.645,0.181l0.653,0.11l0.656,0.11l1.332,0.095l0.667,0.051l0.683-0.019l0.673-0.016l0.678-0.017l0.756-0.067l0.687-0.082
		l0.754-0.069l1.102-0.143l0.854-0.251l0.711-0.206l0.537-0.373l0.457-0.32l0.286-0.479l0.151-0.502l0.111-0.644l0.044-0.657
		l-0.095-0.608l-0.244-0.568l-0.314-0.519l-0.381-0.528l-0.579-0.563L21.032,42.2l-0.796-0.467l-0.611-0.37l-0.624-0.304
		l-0.631-0.244l-0.635-0.237l-0.643-0.181l-0.647-0.172l-0.72-0.124l-0.666-0.05l-0.732-0.063l-0.741,0.007l-0.756,0.068
		l-0.82,0.059l-0.774,0.201l-0.91,0.174l-0.838,0.188L8.557,40.99l0.907-0.175l0.833-0.122l0.817-0.058l0.753-0.071l0.82-0.059
		l0.743-0.003l0.667,0.046l0.732,0.059l0.664,0.049l0.725,0.125l0.643,0.172l0.646,0.18l0.631,0.237l0.635,0.244l0.688,0.317
		l0.622,0.307l0.547,0.354l0.471,0.412l0.458,0.479l0.383,0.526l0.315,0.515l0.174,0.562l0.111,0.547l-0.024,0.524l-0.153,0.505
		l-0.134,0.372l-0.262,0.355l-0.38,0.264l-0.439,0.19l-0.571,0.167l-0.618,0.09l-0.833,0.123l-0.688,0.08l-0.688,0.082l-0.679,0.017
		l-0.688,0.079l-0.664-0.048l-0.682,0.016l-0.664-0.047l-0.655-0.111l-0.669-0.049l-0.653-0.113l-0.647-0.174l-0.653-0.114
		l-0.643-0.177l-0.711-0.186l-0.634-0.245l-0.632-0.239l-1.377-0.633l-1.286-0.75l-1.258-0.943l-1.034-1.036l-0.75-1.119
		l-0.397-1.26l0.016-1.255l0.632-1.348l0.508-0.574l0.563-0.563l0.693-0.479l0.751-0.466l0.952-0.434l1-0.292l1.068-0.346
		l1.18-0.196l1.311-0.174l1.422-0.019l1.483-0.011l1.597,0.14l1.661,0.154l1.769,0.302l1.891,0.391l1.933,0.531l1.29,0.353
		l1.278,0.417l1.158,0.33l1.145,0.397l1.082,0.382l1.018,0.374l1.071,0.444l1.002,0.438l1.008,0.438l0.992,0.499l0.994,0.5
		l0.981,0.565l1.039,0.64l1.037,0.646L38.917,43.741z"/>
</g>
<g>
	<path fill="#3C2415" d="M146.333,44.05l-0.699,0.485c-0.332-0.124-0.666-0.233-1-0.34l0.998-0.686l1.025-0.706l1.039-0.639
		l1.037-0.638l1.037-0.645l1.047-0.577l1.049-0.577l1.111-0.586l1.129-0.524l1.055-0.513l1.137-0.457l1.203-0.471l1.135-0.463
		l2.428-0.81l1.273-0.417l1.287-0.355l1.426-0.374l1.43-0.311l1.506-0.259l1.521-0.193l1.529-0.132l1.539-0.061l1.551-0.003
		l1.51,0.138l1.457,0.215l1.398,0.29l1.301,0.505l1.242,0.576l1.15,0.799l1.029,0.885l0.93,1.096l0.58,1.024l0.361,0.93l0.164,0.968
		l-0.066,0.801l-0.258,0.838l-0.34,0.788l-0.557,0.693l-0.633,0.635l-0.697,0.647l-0.785,0.532l-0.797,0.471l-0.799,0.464
		l-0.873,0.416l-0.756,0.328l-0.764,0.261l-0.697,0.252l-0.699,0.257l-0.713,0.183l-0.707,0.19l-0.721,0.121l-0.646,0.181
		l-0.652,0.11l-0.656,0.11l-1.332,0.095l-0.666,0.051l-0.684-0.018l-0.674-0.017l-0.676-0.017l-0.756-0.067l-0.688-0.082
		l-0.754-0.069l-1.104-0.143l-0.854-0.251l-0.713-0.206L163,48.406l-0.457-0.319l-0.285-0.479l-0.152-0.501l-0.111-0.643
		l-0.043-0.659l0.094-0.607l0.244-0.568l0.313-0.519l0.383-0.529l0.578-0.563l0.656-0.508l0.797-0.468l0.609-0.37l0.623-0.305
		l0.633-0.243l0.635-0.238l0.643-0.18l0.648-0.171l0.719-0.125l0.666-0.05l0.732-0.062l0.74,0.006l0.758,0.068l0.818,0.059
		l0.775,0.201l0.91,0.174l0.838,0.188l0.93,0.304l-0.906-0.174l-0.834-0.122l-0.816-0.058l-0.754-0.071l-0.818-0.059l-0.744-0.003
		l-0.666,0.045l-0.732,0.059l-0.664,0.051l-0.725,0.124l-0.643,0.172l-0.645,0.181l-0.631,0.237l-0.635,0.243l-0.689,0.316
		l-0.621,0.307l-0.547,0.355l-0.471,0.412l-0.457,0.479l-0.383,0.525l-0.314,0.517l-0.176,0.561l-0.111,0.547l0.025,0.524
		l0.152,0.505l0.135,0.372l0.262,0.354l0.381,0.265l0.439,0.19l0.57,0.167l0.619,0.09l0.832,0.123l0.688,0.08l0.689,0.081
		l0.678,0.018l0.688,0.079l0.664-0.049l0.682,0.018l0.664-0.048l0.656-0.112l0.67-0.048l0.652-0.113l0.648-0.175l0.652-0.113
		l0.643-0.177l0.711-0.185l0.635-0.246l0.633-0.238l1.377-0.634l1.285-0.75l1.258-0.944l1.035-1.036l0.75-1.118l0.396-1.261
		l-0.016-1.254l-0.633-1.348l-0.506-0.574l-0.564-0.563l-0.691-0.479l-0.752-0.465l-0.951-0.434l-1-0.292l-1.068-0.346l-1.18-0.195
		l-1.311-0.175l-1.422-0.019l-1.484-0.011l-1.598,0.141l-1.66,0.153l-1.77,0.301l-1.891,0.392l-1.932,0.531l-1.291,0.353
		l-1.277,0.417l-1.158,0.331l-1.145,0.396l-1.082,0.382l-1.018,0.374l-1.07,0.444l-1.002,0.439l-1.008,0.437l-0.992,0.499
		l-0.994,0.5l-0.98,0.565l-1.039,0.64l-1.037,0.646L146.333,44.05z"/>
</g>
<path fill="#F2B7D4" d="M166.117,25.362c0,13.457-32.998,24.375-73.702,24.375c-40.704,0-73.7-10.918-73.7-24.375
	C18.715,11.915,51.711,1,92.415,1C133.119,1,166.117,11.916,166.117,25.362z"/>
<path fill="#FBE3EE" d="M30.294,12.197c-0.194,0.236-0.486,0.398-0.873,0.417c-0.206,0.269-0.529,0.452-0.971,0.452
	c-0.155,0-0.292-0.025-0.418-0.066c-0.164,0.283-0.44,0.497-0.825,0.561c-0.153,0.361-0.465,0.649-0.935,0.712
	c-0.092,0.551-0.499,1.038-1.22,1.038c-0.065,0-0.126-0.006-0.186-0.013c-0.106,0.215-0.275,0.397-0.5,0.515
	c-0.126,0.398-0.43,0.732-0.912,0.821v17.72c0.197,0.063,0.37,0.166,0.518,0.313c0.009,0.013,0.019,0.024,0.027,0.036
	c0.02,0.024,0.042,0.047,0.063,0.07c0.016,0.004,0.032,0.009,0.049,0.013c0.502,0.106,0.844,0.56,0.921,1.048
	c1.724,0.541,3.188,1.407,4.403,2.498c0.319,0.005,0.575,0.105,0.769,0.266c0.214,0.022,0.399,0.088,0.55,0.188V11.989
	C30.627,12.088,30.472,12.158,30.294,12.197z"/>
<path fill="#FBE3EE" d="M45.313,44.101c0.004,0,0.008,0,0.012,0V6.472c-0.479,0.112-0.978,0.195-1.493,0.257
	c-0.189,0.363-0.55,0.632-1.084,0.632c-0.058,0-0.113-0.004-0.167-0.011c-0.207,0.237-0.513,0.396-0.922,0.396
	c-0.31,0-0.562-0.09-0.755-0.236c-0.198,0.324-0.543,0.558-1.04,0.558c-0.164,0-0.311-0.027-0.442-0.072
	C39.199,8.191,38.914,8.315,38.6,8.32c-0.149,0.143-0.34,0.249-0.575,0.296v32.962c2.722,0.263,4.958,1.229,6.719,2.646
	C44.905,44.146,45.094,44.101,45.313,44.101z"/>
<path fill="#FBE3EE" d="M59.74,3.385c-0.281,0-0.513-0.075-0.698-0.198c-0.855,0.263-1.771,0.447-2.75,0.542
	c-0.198,0.322-0.544,0.555-1.041,0.555c-0.238,0-0.44-0.055-0.609-0.146c-0.204,0.204-0.491,0.338-0.866,0.338
	c-0.18,0-0.338-0.032-0.479-0.086c-0.173,0.146-0.396,0.247-0.672,0.271v41.591c0.098-0.022,0.204-0.035,0.317-0.035
	c0.345,0,0.616,0.112,0.817,0.288c1.223,0.084,2.346,0.314,3.383,0.656c0.155-0.07,0.337-0.11,0.544-0.11
	c0.384,0,0.677,0.139,0.883,0.351c0.464,0.029,0.915,0.078,1.356,0.142V3.372C59.867,3.38,59.805,3.385,59.74,3.385z"/>
<path fill="#FBE3EE" d="M73.782,1.653c-0.138,0-0.26-0.022-0.375-0.056c-0.207,0.227-0.508,0.377-0.907,0.377
	c-0.218,0-0.406-0.045-0.565-0.122c-0.12,0.036-0.251,0.059-0.396,0.059c-0.276,0-0.505-0.073-0.689-0.192
	c-0.207,0.23-0.511,0.384-0.915,0.384c-0.234,0-0.436-0.052-0.604-0.141c-0.194,0.342-0.548,0.59-1.063,0.59
	c-0.294,0-0.534-0.084-0.723-0.217c-0.095,0.054-0.201,0.094-0.318,0.12v46.154c0.127,0.047,0.242,0.117,0.346,0.2
	c0.173-0.099,0.383-0.156,0.63-0.156c0.291,0,0.529,0.081,0.717,0.212c0.137-0.052,0.284-0.084,0.437-0.084h0.025
	c0.126-0.041,0.268-0.063,0.423-0.063c0.439,0,0.761,0.181,0.967,0.447c0.072-0.036,0.151-0.063,0.235-0.085
	c0.179-0.106,0.397-0.171,0.657-0.171c0.343,0,0.615,0.112,0.815,0.287c0.42-0.219,0.941-0.195,1.334,0.08
	c0.155-0.07,0.336-0.11,0.543-0.11c0.058,0,0.114,0.004,0.168,0.01V1.424C74.335,1.566,74.087,1.653,73.782,1.653z"/>
<path fill="#FBE3EE" d="M88.658,49.743c0.164,0,0.311,0.026,0.442,0.071V0.599c-1.179,0.322-2.462,0.516-3.869,0.516
	c-1.235,0-2.372-0.148-3.432-0.399v49.133c0.801-0.134,1.637-0.221,2.53-0.221c1.261,0,2.424,0.149,3.5,0.414
	C88.031,49.858,88.307,49.743,88.658,49.743z"/>
<path fill="#FBE3EE" d="M103.662,1.27c-0.301,0-0.546-0.086-0.737-0.225c-1.07,0.261-2.227,0.407-3.478,0.407
	c-1.084,0-2.097-0.105-3.047-0.302v48.555c0.086-0.017,0.176-0.026,0.272-0.026c0.383,0,0.676,0.139,0.882,0.351
	c1.068-0.26,2.223-0.402,3.473-0.402c0.947,0,1.83,0.092,2.673,0.242V1.268C103.688,1.268,103.675,1.27,103.662,1.27z"/>
<path fill="#FBE3EE" d="M117.639,48.204c0.263,0,0.483,0.065,0.663,0.174V2.338c-0.621,0.076-1.258,0.13-1.933,0.13
	c-2.028,0-3.81-0.378-5.367-1.023v47c0.705-0.101,1.435-0.173,2.21-0.173c1.24,0,2.357,0.181,3.41,0.45
	C116.824,48.418,117.162,48.204,117.639,48.204z"/>
<path fill="#FBE3EE" d="M132.771,4.988c-0.465,0-0.799-0.202-1.002-0.494c-2.027-0.021-3.811-0.41-5.357-1.08
	c-0.199,0.176-0.469,0.288-0.809,0.291V47.26c1.674-0.788,3.631-1.245,5.885-1.245c0.486,0,0.955,0.029,1.414,0.068V4.981
	C132.861,4.986,132.816,4.988,132.771,4.988z"/>
<path fill="#FBE3EE" d="M146.462,8.525c-2.469-0.161-4.549-0.894-6.26-2.01v37.396c0.023-0.001,0.047-0.003,0.07-0.003
	c0.227,0,0.42,0.049,0.584,0.133c1.76-1.342,3.973-2.242,6.646-2.472V9.405C146.935,9.352,146.587,8.975,146.462,8.525z"/>
<path fill="#FBE3EE" d="M160.882,16.119c-0.018-0.011-0.037-0.021-0.055-0.032c-0.244-0.146-0.422-0.366-0.525-0.614
	c-0.172-0.064-0.33-0.16-0.461-0.291c-0.072-0.072-0.139-0.16-0.195-0.256c-0.471-0.052-0.789-0.324-0.951-0.676
	c-0.014,0-0.025,0.004-0.041,0.004c-0.643,0-1.033-0.389-1.178-0.861c-1.254-0.338-2.404-0.813-3.396-1.461v26.595
	c0.039-0.015,0.084-0.023,0.125-0.035c0.207-0.25,0.521-0.418,0.943-0.418c0.119,0,0.229,0.015,0.33,0.039
	c1.471-1.719,3.439-3.052,5.902-3.745V16.283C161.208,16.265,161.039,16.213,160.882,16.119z"/>
<path fill="none" stroke="#3C2415" stroke-width="1.5" stroke-miterlimit="10" d="M166.117,25.362
	c0,13.457-32.998,24.375-73.702,24.375c-40.704,0-73.7-10.918-73.7-24.375C18.715,11.915,51.711,1,92.415,1
	C133.119,1,166.117,11.916,166.117,25.362z"/>
<g>
	<path fill="#3C2415" d="M23.453,28.055c0-1.343,1-2.3,1.997-2.337c0.88-0.076,1.417,0.423,1.417,1.149
		c0,0.574-0.344,0.921-0.881,1.304c-0.384,0.271-0.69,0.535-0.69,0.958c0,0.804,1.264,1.459,3.758,1.264
		c2.991-0.264,5.867-1.878,7.977-3.334c-0.727-0.653-2.11-2.377-2.11-4.335c0.04-2.3,1.803-4.063,4.564-4.022
		c2.07,0.073,3.527,1.723,3.987,2.76c0.5-0.5,1.344-1.265,1.804-1.687c2.031-1.844,3.837-3.378,5.754-4.411
		c1.454-0.807,3.104-1.46,4.601-1.46c0.729,0,1.15,0.232,1.34,0.386c0.233,0.191,0.384,0.461,0.27,0.535
		c-0.074,0.039-0.153-0.074-0.42-0.268c-0.153-0.113-0.54-0.229-0.844-0.229c-0.422,0-0.843,0.116-1.227,0.423
		c-0.847,0.688-2.224,2.337-3.107,3.604c-2.38,3.297-4.984,7.248-7.171,10.813c0.611-0.037,1.38-0.268,2.145-0.651
		c0.807-0.42,1.804-1.189,2.417-1.761c0.193-0.195,0.307-0.195,0.383-0.116c0.077,0.074-0.034,0.229-0.304,0.497
		c-0.537,0.5-1.42,1.227-2.38,1.727c-0.807,0.421-1.727,0.653-2.454,0.689c-0.539,0.578-0.923,0.842-1.497,0.958
		c-1.11,0.233-1.073-0.27-0.92-0.533c0.114-0.233,0.23-0.425,0.309-0.578c-0.689-0.073-1.843-0.422-2.496-0.691
		c-0.844-0.345-1.764-0.878-2.261-1.339c-1.459,1.034-4.871,3.258-8.474,3.528c-2.993,0.227-5.487-0.692-5.487-2.801V28.055z
		 M39.485,19.274c-1.997,0-3.07,1.727-3.144,3.529c-0.079,1.608,0.767,3.185,1.264,3.798c0.807-0.656,1.767-1.46,2.803-2.38
		c0.914-0.805,1.837-1.65,2.721-2.455c-0.767-1.416-2.034-2.492-3.606-2.492H39.485z M39.868,28.286
		c0.614,0.269,1.804,0.651,2.494,0.729c0.307-0.538,0.994-1.574,1.148-1.844c0.269-0.534,0.309-1.761,0.229-2.837
		c-0.074-0.918-0.188-1.647-0.42-2.225c-0.92,0.847-1.837,1.688-2.684,2.455c-1.034,0.92-1.917,1.687-2.76,2.379
		C38.295,27.441,39.138,27.939,39.868,28.286z M48.686,19.851c2.343-3.07,4.414-4.72,6.177-5.562V14.25
		c-0.882,0.077-2.3,0.613-3.644,1.341c-1.803,1-3.644,2.607-5.14,3.95c-0.917,0.847-1.647,1.536-2.414,2.264
		c0.193,0.539,0.423,1.306,0.497,2.492c0.04,0.691,0,1.458-0.117,2.147C44.929,25.064,47.349,21.577,48.686,19.851z"/>
	<path fill="#3C2415" d="M76.167,13.063c2.837,0,4.68,0.841,6.098,1.994c0.96-0.384,2.34-0.729,3.45-0.729
		c2.07-0.077,3.797,0.959,3.454,2.686c-0.5,2.491-5.217,3.756-7.478,4.024c-1.306,0.153-3.033,0.153-4.22,0
		c-2.534,3.681-4.334,5.448-6.788,7.096c0.5,0.075,1.727,0.382,2.877,0.689c1.377,0.344,3.144,0.692,3.948,0.692
		c2.224,0,3.913-0.729,6.253-2.761c0.19-0.152,0.383-0.386,0.5-0.269c0.111,0.116-0.117,0.343-0.349,0.573
		c-2.8,2.61-4.139,3.721-6.634,3.721c-1.454,0-3.067-0.345-4.141-0.768c-1.264-0.497-2.687-1.15-3.181-1.264
		c-0.921,0.725-2.837,1.915-5.178,1.951c-1.539,0.043-2.339-0.265-2.3-0.877c0.074-1.268,3.485-1.994,5.711-1.958
		c0.576,0,1.343,0.075,1.803,0.153c2.108-1.956,3.067-4.41,5.294-7.324c-2.533-0.539-4.757-1.919-4.757-3.873
		C70.529,14.863,72.563,13.063,76.167,13.063z M67.27,28.286c-1.61,0.038-3.028,0.689-3.07,1.383
		c-0.037,0.496,0.579,0.649,1.229,0.612c1.187,0,3.03-0.767,4.027-1.727C68.882,28.401,68.076,28.248,67.27,28.286z M75.514,20.351
		c1.764-2.228,4.297-4.337,6.098-5.064c-1.074-0.729-2.954-1.688-5.638-1.688c-3.257,0-5.101,1.496-5.101,3.106
		C70.874,18.508,73.021,19.811,75.514,20.351z M81.728,20.617c2.263-0.31,5.788-1.649,6.325-3.913
		c0.27-1.267-0.727-2.107-2.338-2.07c-0.88,0-2.3,0.46-3.03,0.92c0.27,0.346,0.54,0.804,0.729,1.306
		c0.347,0.994,0.23,1.418,0.153,1.418s-0.037-0.384-0.576-1.344c-0.227-0.421-0.647-0.881-0.88-1.073
		c-1.496,0.844-3.027,2.801-4.45,4.833C78.814,20.848,80.348,20.811,81.728,20.617z"/>
	<path fill="#3C2415" d="M93.516,23.684c0.806-0.039,0.88,0.153,0.5,0.613c-0.5,0.574-1.343,1.534-2.15,2.531
		c-0.497,0.613-0.997,1.267-1.343,1.878c-0.267,0.46-0.267,0.767-0.114,0.883c0.19,0.153,0.574,0,0.883-0.153
		c0.384-0.19,1.113-0.688,1.724-1.188c0.807-0.653,1.42-1.189,1.843-1.573c0.227-0.189,0.423-0.384,0.537-0.27
		c0.113,0.116-0.079,0.307-0.5,0.692c-0.5,0.461-1.417,1.264-2.147,1.84c-0.767,0.613-2.033,1.534-3.297,1.534
		c-0.73,0-1.076-0.343-1.113-0.803c-0.038-0.424,0.19-0.963,0.537-1.383l-0.037-0.038c-0.999,0.881-2.763,2.145-4.217,2.224
		c-0.846,0.037-1.729-0.307-1.576-1.534c0.08-0.576,0.386-1.189,1.074-1.993l-0.035-0.037c-0.116,0.114-0.27,0.265-0.5,0.46
		c-0.153,0.111-0.269,0.191-0.348,0.111c-0.074-0.111,0.116-0.344,0.539-0.725c0.114-0.116,0.767-0.655,1.15-0.923
		c0.384-0.267,1.034-0.689,1.764-1.071c1.497-0.769,2.84-1.229,3.834-1.076c0.769,0.114,1.037,0.808,0.807,1.458
		C92.251,24.184,92.899,23.684,93.516,23.684z M86.842,26.485c-1.573,1.532-2.221,2.53-2.147,3.029
		c0.038,0.265,0.23,0.381,0.5,0.381c0.727,0,2.184-0.842,3.22-1.801c1.224-1.073,2.61-2.722,2.647-3.335
		c0.037-0.502-0.27-0.691-0.69-0.691C89.605,24.068,88.222,25.104,86.842,26.485z"/>
	<path fill="#3C2415" d="M115.65,14.787c0.536-0.153,1.343-0.307,2.033-0.344c2.416-0.154,4.871,0.533,4.447,2.874
		c-0.42,2.377-4.447,3.53-7.364,3.53c-2.147,0-4.408-0.497-5.791-1.533c-2.914,2.606-4.984,6.097-4.984,8.587
		c0,2.228,1.379,3.104,3.296,3.104c2.264,0,4.067-0.994,5.562-1.99c0.999-0.691,1.917-1.494,2.376-1.918
		c0.537-0.496,0.732-0.653,0.847-0.539c0.076,0.079-0.114,0.309-0.31,0.5c-0.92,0.843-1.915,1.727-2.76,2.303
		c-1.574,1.11-3.528,2.067-5.788,2.185c-3.187,0.115-5.411-1.037-5.524-3.871c-0.116-3.378,3.107-7.021,6.287-9.321
		c-0.537-0.689-0.957-1.533-0.957-2.416c0-2.148,1.84-3.568,3.911-3.568C112.772,12.369,114.616,13.29,115.65,14.787z
		 M107.521,15.977c0,0.728,0.267,1.496,0.765,2.146c2.073-1.38,4.603-2.569,6.751-3.183c-1.188-1.307-2.801-2.071-4.409-2.071
		C108.976,12.869,107.521,14.061,107.521,15.977z M120.714,17.24c0.379-1.764-0.847-2.567-2.88-2.53
		c-0.573,0-1.57,0.193-2.028,0.384c0.305,0.539,0.574,1.419,0.647,2.11c0.08,0.612,0,0.994-0.113,0.956
		c-0.076-0.037-0.039-0.229-0.153-0.767c-0.153-0.767-0.573-1.649-0.92-2.107c-2.031,0.767-4.334,2.261-5.981,3.757
		c1.343,0.998,3.487,1.421,5.558,1.421C117.644,20.464,120.288,19.121,120.714,17.24z"/>
	<path fill="#3C2415" d="M122.257,24.718c0,0.5-0.922,1.307-1.766,2.304c-0.65,0.767-1.11,1.42-1.301,1.801
		c-0.196,0.344-0.196,0.613-0.042,0.729c0.152,0.118,0.422,0.075,0.849-0.153c0.42-0.231,1.11-0.649,1.721-1.149
		c0.846-0.653,1.307-1.034,1.803-1.494c0.268-0.269,0.5-0.386,0.576-0.31c0.113,0.114-0.156,0.347-0.463,0.653
		c-0.457,0.424-1.223,1.11-2.184,1.84c-0.806,0.613-2.15,1.534-3.414,1.534c-0.806,0-1.227-0.423-1.189-0.999
		c0.042-0.841,0.999-1.914,1.843-2.719c0.921-0.883,2.377-1.919,2.491-2.188c0.154-0.419-0.574-0.308-1.533-0.308
		c-0.384,0-0.688,0-0.884-0.074c-0.304,0.345-0.841,0.881-1.454,1.458c-0.653,0.61-1.113,1.033-1.533,1.417
		c-0.347,0.309-0.501,0.383-0.577,0.309c-0.077-0.079,0.04-0.27,0.421-0.613c0.463-0.423,0.806-0.729,1.496-1.381
		c0.537-0.502,1.037-0.998,1.344-1.343c-0.347-0.232-0.384-0.767,0-1.227c0.304-0.386,0.84-0.656,1.456-0.656
		c0.307,0,0.653,0.156,0.69,0.387c-0.27,0.189-0.42,0.307-0.652,0.536c-0.498,0.537-0.385,0.807,0.115,0.845
		c1.074,0.037,2.187,0.076,2.187,0.767V24.718z"/>
	<path fill="#3C2415" d="M129.355,28.595c0.729-0.5,1.609-1.19,2.34-1.841c0.23-0.195,0.344-0.232,0.42-0.152
		c0.078,0.11-0.076,0.306-0.307,0.496c-0.496,0.461-1.725,1.457-2.418,1.918c-1.607,1.07-3.029,1.572-4.33,1.572
		c-1.422,0-2.072-0.539-2.031-1.534c0.035-0.768,0.381-1.459,1.148-2.379l-0.037-0.037c-0.117,0.116-0.537,0.497-0.77,0.688
		c-0.189,0.153-0.307,0.196-0.383,0.116c-0.076-0.116,0.076-0.27,0.229-0.42c0.5-0.463,0.846-0.73,1.424-1.15
		c0.42-0.307,1.146-0.767,1.875-1.153c1.115-0.571,2.266-1.073,3.303-1.073h0.037c0.844,0,1.146,0.539,1.109,1.037
		c-0.076,0.996-1.303,1.763-2.453,2.34c-1.113,0.537-2.418,0.996-3.297,1.227c-0.154,0.307-0.232,0.65-0.232,0.881
		c0,0.576,0.305,0.883,0.885,0.883C126.361,30.012,127.667,29.742,129.355,28.595z M128.05,26.675
		c0.961-0.65,1.535-1.457,1.572-1.993c0.039-0.347-0.115-0.535-0.459-0.535c-0.346,0-0.92,0.382-1.689,1.111
		c-0.611,0.573-1.57,1.801-2.033,2.57C126.208,27.635,127.244,27.214,128.05,26.675z M129.085,16.859c0.27,0,0.348,0.19,0.422,0.381
		c0.42,1,1.227,2.38,1.918,3.301c0.076,0.113,0.193,0.27,0.076,0.344c-0.113,0.076-0.268-0.074-0.383-0.153
		c-0.691-0.577-2.033-1.725-2.531-2.571c-0.076-0.115-0.191-0.344-0.191-0.576c0-0.38,0.346-0.725,0.652-0.725H129.085z"/>
	<path fill="#3C2415" d="M136.339,23.684c0.729,0,0.955,0.422,0.955,0.845c0,0.46-0.307,0.957-0.801,1.649
		c-0.578,0.767-1.385,1.803-1.807,2.417l0.039,0.037c0.92-0.768,2.188-1.878,3.531-2.877c1.342-0.995,3.031-2.071,4.141-2.071
		c0.957,0,1.34,0.463,1.227,1.113c-0.115,0.614-0.842,1.418-1.496,2.185c-0.652,0.767-1.035,1.227-1.381,1.687l0.037,0.038
		c0.887-0.767,2.266-1.952,3.609-2.951c1.338-0.995,3.027-2.071,4.178-2.071c0.842,0,1.266,0.422,1.189,1.034
		c-0.115,0.693-0.922,1.573-1.533,2.341c-0.615,0.729-1.039,1.343-1.268,1.689c-0.305,0.46-0.305,0.725-0.154,0.841
		c0.193,0.153,0.615,0,0.92-0.153c0.461-0.228,1-0.537,1.84-1.188c0.654-0.5,1.424-1.189,1.844-1.573
		c0.23-0.189,0.383-0.344,0.5-0.23c0.074,0.077-0.041,0.23-0.309,0.5c-0.346,0.344-1.494,1.38-2.299,1.993
		c-0.77,0.577-2.264,1.534-3.453,1.534c-0.768,0-1.189-0.343-1.15-0.999c0.037-0.878,0.957-1.878,1.609-2.682
		c0.578-0.692,1.113-1.306,1.611-1.88c0.156-0.193,0.23-0.42,0.039-0.536c-0.191-0.117-0.615,0.037-0.998,0.229
		c-0.691,0.347-1.764,0.997-2.992,1.954c-1.686,1.306-2.607,2.189-4.293,3.49c-0.348,0.27-0.617,0.344-0.998,0.344
		c-0.613,0-0.729-0.111-0.5-0.613c0.387-0.804,1.344-2.145,2.035-2.988c0.652-0.803,1.342-1.496,1.609-1.88
		c0.152-0.193,0.193-0.459-0.041-0.536c-0.227-0.078-0.535,0.037-0.955,0.229c-0.693,0.347-1.842,1.037-2.994,1.954
		c-1.688,1.306-2.607,2.189-4.295,3.49c-0.342,0.27-0.572,0.344-0.994,0.344c-0.535,0-0.805-0.074-0.502-0.613
		c0.27-0.497,1.113-1.762,1.688-2.565c0.578-0.809,1.113-1.459,1.539-1.996c0.268-0.347,0.34-0.536,0.268-0.652
		c-0.117-0.153-0.348-0.074-0.576,0.039c-0.461,0.23-1.035,0.653-1.498,1.037c-0.496,0.42-1.113,0.96-1.648,1.456
		c-0.385,0.344-0.537,0.461-0.648,0.344c-0.08-0.116,0.111-0.307,0.574-0.729c0.457-0.421,1.303-1.227,1.99-1.761
		C134.765,24.146,135.535,23.684,136.339,23.684z"/>
	<path fill="#3C2415" d="M157.173,28.595c0.732-0.5,1.611-1.19,2.34-1.841c0.23-0.195,0.348-0.232,0.422-0.152
		c0.078,0.11-0.074,0.306-0.309,0.496c-0.496,0.461-1.721,1.457-2.416,1.918c-1.607,1.07-3.027,1.572-4.33,1.572
		c-1.42,0-2.072-0.539-2.035-1.534c0.041-0.768,0.385-1.459,1.152-2.379l-0.037-0.037c-0.117,0.116-0.537,0.497-0.77,0.688
		c-0.191,0.153-0.305,0.196-0.383,0.116c-0.076-0.116,0.078-0.27,0.23-0.42c0.498-0.463,0.842-0.73,1.422-1.15
		c0.42-0.307,1.146-0.767,1.877-1.153c1.113-0.571,2.26-1.073,3.299-1.073h0.037c0.844,0,1.15,0.539,1.111,1.037
		c-0.076,0.996-1.307,1.763-2.455,2.34c-1.109,0.537-2.416,0.996-3.297,1.227c-0.152,0.307-0.23,0.65-0.23,0.881
		c0,0.576,0.309,0.883,0.885,0.883C154.183,30.012,155.486,29.742,157.173,28.595z M155.871,26.675
		c0.959-0.65,1.533-1.457,1.572-1.993c0.035-0.347-0.115-0.535-0.459-0.535c-0.346,0-0.922,0.382-1.689,1.111
		c-0.613,0.573-1.572,1.801-2.029,2.57C154.031,27.635,155.066,27.214,155.871,26.675z"/>
	<path fill="#3C2415" d="M52.084,7.723c0.27,0,0.347,0.189,0.42,0.38c0.423,0.999,1.229,2.38,1.917,3.3
		c0.08,0.116,0.196,0.27,0.08,0.346c-0.114,0.077-0.267-0.076-0.384-0.152c-0.69-0.577-2.033-1.727-2.527-2.57
		c-0.08-0.113-0.196-0.347-0.196-0.576c0-0.385,0.346-0.727,0.653-0.727H52.084z"/>
</g>
</svg>
