<?xml version="1.0" encoding="utf-8"?>
<!-- Generator: Adobe Illustrator 16.2.0, SVG Export Plug-In . SVG Version: 6.00 Build 0)  -->
<!DOCTYPE svg PUBLIC "-//W3C//DTD SVG 1.1//EN" "http://www.w3.org/Graphics/SVG/1.1/DTD/svg11.dtd">
<svg version="1.1" id="Layer_1" xmlns="http://www.w3.org/2000/svg" xmlns:xlink="http://www.w3.org/1999/xlink" x="0px" y="0px"
	 width="108.281px" height="36.671px" viewBox="0 0 108.281 36.671" enable-background="new 0 0 108.281 36.671"
	 xml:space="preserve">
<path fill="#F2B7D4" d="M107.63,18.332c0,9.766-23.949,17.689-53.491,17.689c-29.542,0-53.489-7.923-53.489-17.69
	c0-9.76,23.948-17.682,53.489-17.682C83.681,0.65,107.63,8.572,107.63,18.332z"/>
<path fill="#FBE3EE" d="M9.053,8.776C8.912,8.948,8.701,9.065,8.419,9.079C8.27,9.274,8.036,9.408,7.715,9.408
	c-0.112,0-0.212-0.019-0.304-0.048C7.292,9.564,7.093,9.72,6.813,9.766c-0.111,0.262-0.337,0.471-0.679,0.516
	c-0.066,0.4-0.361,0.754-0.885,0.754c-0.047,0-0.092-0.004-0.135-0.01c-0.078,0.156-0.2,0.289-0.364,0.374
	c-0.091,0.289-0.312,0.531-0.662,0.596v12.86c0.143,0.045,0.269,0.12,0.376,0.227c0.007,0.009,0.014,0.018,0.02,0.026
	c0.015,0.018,0.03,0.034,0.045,0.051c0.012,0.002,0.023,0.006,0.036,0.009c0.364,0.077,0.612,0.406,0.668,0.76
	c1.251,0.393,2.314,1.021,3.196,1.813c0.232,0.003,0.417,0.077,0.558,0.193c0.156,0.016,0.29,0.063,0.399,0.137V8.625
	C9.295,8.697,9.183,8.748,9.053,8.776z"/>
<path fill="#FBE3EE" d="M19.954,31.931c0.003,0,0.006,0.001,0.009,0.001V4.62c-0.348,0.082-0.71,0.143-1.083,0.188
	c-0.137,0.264-0.399,0.458-0.787,0.458c-0.042,0-0.082-0.003-0.122-0.007c-0.15,0.171-0.373,0.287-0.669,0.287
	c-0.226,0-0.408-0.066-0.549-0.172c-0.144,0.235-0.394,0.404-0.755,0.404c-0.119,0-0.226-0.019-0.321-0.052
	c-0.161,0.143-0.368,0.233-0.596,0.237c-0.108,0.104-0.246,0.181-0.417,0.215V30.1c1.976,0.191,3.598,0.893,4.876,1.921
	C19.658,31.964,19.795,31.931,19.954,31.931z"/>
<path fill="#FBE3EE" d="M30.425,2.381c-0.204,0-0.372-0.055-0.506-0.144c-0.621,0.19-1.286,0.324-1.996,0.393
	c-0.145,0.234-0.396,0.402-0.756,0.402c-0.172,0-0.319-0.04-0.441-0.105c-0.149,0.148-0.357,0.245-0.628,0.245
	c-0.13,0-0.246-0.023-0.348-0.062c-0.125,0.106-0.287,0.18-0.487,0.197v30.186c0.071-0.017,0.147-0.026,0.23-0.026
	c0.25,0,0.447,0.082,0.593,0.209c0.888,0.061,1.703,0.229,2.455,0.477c0.113-0.052,0.245-0.081,0.396-0.081
	c0.278,0,0.491,0.101,0.641,0.254c0.336,0.021,0.663,0.058,0.983,0.103V2.372C30.517,2.376,30.472,2.381,30.425,2.381z"/>
<path fill="#FBE3EE" d="M40.616,1.125c-0.1,0-0.188-0.017-0.272-0.041c-0.15,0.164-0.369,0.273-0.658,0.273
	c-0.158,0-0.294-0.033-0.411-0.089c-0.087,0.026-0.182,0.042-0.288,0.042c-0.201,0-0.367-0.053-0.5-0.139
	c-0.15,0.167-0.372,0.278-0.664,0.278c-0.171,0-0.317-0.037-0.439-0.102c-0.141,0.248-0.398,0.428-0.771,0.428
	c-0.213,0-0.387-0.06-0.524-0.157c-0.069,0.038-0.146,0.068-0.23,0.087v33.498c0.092,0.034,0.175,0.085,0.25,0.145
	c0.126-0.071,0.278-0.114,0.458-0.114c0.211,0,0.383,0.059,0.52,0.154c0.1-0.037,0.206-0.061,0.317-0.061h0.019
	c0.092-0.03,0.194-0.047,0.307-0.047c0.319,0,0.552,0.132,0.702,0.325c0.053-0.026,0.11-0.046,0.171-0.062
	c0.13-0.078,0.289-0.124,0.478-0.124c0.249,0,0.446,0.081,0.591,0.208c0.305-0.159,0.683-0.142,0.969,0.058
	c0.113-0.051,0.244-0.08,0.394-0.08c0.043,0,0.083,0.002,0.123,0.007V0.958C41.018,1.061,40.837,1.125,40.616,1.125z"/>
<path fill="#FBE3EE" d="M51.412,36.026c0.119,0,0.226,0.019,0.321,0.052V0.358c-0.855,0.234-1.787,0.374-2.807,0.374
	c-0.896,0-1.722-0.107-2.491-0.29v35.66c0.582-0.098,1.188-0.161,1.837-0.161c0.915,0,1.759,0.109,2.54,0.301
	C50.958,36.11,51.158,36.026,51.412,36.026z"/>
<path fill="#FBE3EE" d="M62.302,0.845c-0.219,0-0.396-0.062-0.536-0.163c-0.776,0.189-1.615,0.295-2.523,0.295
	c-0.787,0-1.522-0.076-2.211-0.218v35.239c0.062-0.012,0.127-0.019,0.198-0.019c0.278,0,0.491,0.101,0.641,0.254
	c0.775-0.188,1.613-0.292,2.521-0.292c0.687,0,1.327,0.067,1.939,0.176V0.844C62.32,0.844,62.312,0.845,62.302,0.845z"/>
<path fill="#FBE3EE" d="M72.446,34.909c0.191,0,0.352,0.048,0.48,0.127V1.621c-0.45,0.056-0.912,0.094-1.402,0.094
	c-1.472,0-2.766-0.274-3.896-0.743v34.112c0.512-0.073,1.042-0.125,1.604-0.125c0.9,0,1.711,0.13,2.475,0.326
	C71.855,35.064,72.1,34.909,72.446,34.909z"/>
<path fill="#FBE3EE" d="M83.428,3.544c-0.337,0-0.579-0.147-0.728-0.358c-1.471-0.015-2.765-0.298-3.888-0.784
	c-0.145,0.128-0.34,0.209-0.588,0.211v31.611c1.215-0.571,2.636-0.904,4.272-0.904c0.353,0,0.692,0.021,1.026,0.05V3.54
	C83.494,3.542,83.461,3.544,83.428,3.544z"/>
<path fill="#FBE3EE" d="M93.364,6.111c-1.79-0.117-3.3-0.648-4.542-1.458v27.141c0.018-0.001,0.034-0.002,0.052-0.002
	c0.163,0,0.305,0.035,0.424,0.096c1.277-0.974,2.883-1.626,4.823-1.793V6.75C93.708,6.711,93.457,6.437,93.364,6.111z"/>
<path fill="#FBE3EE" d="M103.831,11.623c-0.013-0.008-0.026-0.016-0.039-0.023c-0.178-0.106-0.307-0.266-0.382-0.446
	c-0.124-0.046-0.239-0.116-0.334-0.211c-0.053-0.053-0.101-0.116-0.143-0.186c-0.341-0.038-0.572-0.236-0.689-0.491
	c-0.01,0-0.02,0.003-0.03,0.003c-0.467,0-0.75-0.281-0.854-0.625c-0.911-0.245-1.745-0.59-2.465-1.06v19.302
	c0.028-0.011,0.061-0.017,0.091-0.025c0.15-0.182,0.378-0.304,0.685-0.304c0.086,0,0.166,0.011,0.239,0.029
	c1.066-1.248,2.495-2.215,4.284-2.718V11.742C104.067,11.729,103.944,11.691,103.831,11.623z"/>
<path fill="none" stroke="#3C2415" stroke-miterlimit="10" d="M107.63,18.332c0,9.766-23.949,17.689-53.491,17.689
	c-29.542,0-53.489-7.923-53.489-17.69c0-9.76,23.948-17.682,53.489-17.682C83.681,0.65,107.63,8.572,107.63,18.332z"/>
<g>
	<path fill="#3C2415" d="M4.088,20.286c0-0.975,0.726-1.67,1.449-1.696c0.639-0.056,1.029,0.307,1.029,0.834
		c0,0.417-0.25,0.668-0.639,0.947c-0.278,0.196-0.501,0.387-0.501,0.694c0,0.583,0.917,1.059,2.728,0.917
		c2.171-0.191,4.258-1.363,5.79-2.42c-0.527-0.475-1.531-1.725-1.531-3.146c0.028-1.669,1.309-2.949,3.313-2.92
		c1.502,0.054,2.56,1.251,2.894,2.003c0.363-0.363,0.975-0.918,1.309-1.224c1.474-1.338,2.784-2.452,4.176-3.202
		c1.056-0.585,2.253-1.06,3.339-1.06c0.529,0,0.834,0.169,0.973,0.281c0.169,0.138,0.278,0.333,0.196,0.388
		c-0.053,0.029-0.111-0.054-0.305-0.194c-0.111-0.083-0.391-0.167-0.612-0.167c-0.307,0-0.612,0.084-0.891,0.307
		c-0.614,0.499-1.614,1.697-2.255,2.616c-1.727,2.393-3.617,5.26-5.204,7.847c0.443-0.027,1.002-0.194,1.556-0.473
		c0.586-0.305,1.31-0.863,1.754-1.278c0.14-0.142,0.223-0.142,0.279-0.084c0.055,0.054-0.025,0.167-0.221,0.361
		c-0.389,0.362-1.03,0.89-1.727,1.252c-0.585,0.306-1.253,0.474-1.781,0.501c-0.392,0.419-0.669,0.61-1.086,0.695
		c-0.806,0.169-0.779-0.195-0.667-0.388c0.083-0.169,0.167-0.307,0.225-0.418c-0.5-0.054-1.338-0.307-1.812-0.503
		c-0.612-0.249-1.28-0.637-1.641-0.971c-1.06,0.75-3.535,2.364-6.15,2.56c-2.172,0.165-3.982-0.503-3.982-2.032V20.286z
		 M15.724,13.912c-1.449,0-2.228,1.253-2.282,2.562c-0.058,1.167,0.556,2.311,0.917,2.756c0.585-0.476,1.282-1.06,2.035-1.728
		c0.664-0.583,1.333-1.197,1.975-1.781c-0.557-1.028-1.476-1.81-2.618-1.81H15.724z M16.002,20.453
		c0.446,0.195,1.309,0.474,1.81,0.529c0.222-0.39,0.722-1.142,0.833-1.337c0.195-0.388,0.224-1.278,0.167-2.06
		c-0.054-0.665-0.136-1.195-0.305-1.614c-0.668,0.614-1.333,1.225-1.948,1.781c-0.75,0.668-1.392,1.225-2.004,1.728
		C14.861,19.84,15.473,20.201,16.002,20.453z M22.402,14.331c1.701-2.229,3.203-3.426,4.483-4.036v-0.029
		c-0.641,0.055-1.669,0.445-2.645,0.973c-1.308,0.726-2.645,1.892-3.73,2.867c-0.666,0.614-1.195,1.115-1.752,1.643
		c0.14,0.392,0.308,0.947,0.361,1.809c0.029,0.501,0,1.058-0.085,1.559C19.675,18.115,21.432,15.584,22.402,14.331z"/>
	<path fill="#3C2415" d="M42.347,9.404c2.06,0,3.397,0.61,4.425,1.448c0.697-0.279,1.699-0.531,2.504-0.531
		c1.503-0.055,2.756,0.697,2.506,1.95c-0.362,1.808-3.786,2.725-5.427,2.921c-0.948,0.111-2.202,0.111-3.063,0
		c-1.839,2.671-3.146,3.953-4.926,5.149c0.362,0.056,1.253,0.278,2.088,0.5c1,0.25,2.281,0.503,2.865,0.503
		c1.614,0,2.839-0.529,4.539-2.003c0.138-0.111,0.277-0.28,0.362-0.196c0.081,0.085-0.085,0.249-0.253,0.417
		c-2.032,1.895-3.004,2.7-4.815,2.7c-1.056,0-2.226-0.25-3.005-0.557c-0.917-0.36-1.95-0.834-2.309-0.917
		c-0.668,0.526-2.059,1.39-3.757,1.417c-1.117,0.031-1.698-0.192-1.669-0.637c0.053-0.919,2.53-1.447,4.145-1.42
		c0.418,0,0.975,0.054,1.309,0.111c1.529-1.419,2.226-3.201,3.841-5.315c-1.838-0.392-3.452-1.393-3.452-2.812
		C38.255,10.711,39.731,9.404,42.347,9.404z M35.89,20.453c-1.169,0.028-2.198,0.5-2.229,1.004c-0.026,0.36,0.42,0.472,0.893,0.445
		c0.862,0,2.199-0.557,2.922-1.253C37.06,20.537,36.475,20.426,35.89,20.453z M41.873,14.693c1.28-1.616,3.119-3.147,4.425-3.675
		c-0.779-0.53-2.144-1.227-4.092-1.227c-2.363,0-3.702,1.087-3.702,2.255C38.505,13.355,40.063,14.302,41.873,14.693z
		 M46.383,14.887c1.643-0.224,4.201-1.197,4.59-2.839c0.197-0.92-0.527-1.53-1.696-1.503c-0.638,0-1.669,0.334-2.199,0.668
		c0.196,0.251,0.392,0.583,0.529,0.948c0.252,0.722,0.167,1.029,0.111,1.029c-0.056,0-0.027-0.279-0.418-0.975
		c-0.165-0.305-0.47-0.639-0.639-0.779c-1.086,0.612-2.198,2.032-3.23,3.508C44.268,15.054,45.381,15.027,46.383,14.887z"/>
	<path fill="#3C2415" d="M54.938,17.113c0.586-0.029,0.64,0.111,0.363,0.445c-0.363,0.417-0.974,1.113-1.56,1.836
		c-0.361,0.446-0.723,0.92-0.975,1.363c-0.194,0.334-0.194,0.557-0.083,0.641c0.138,0.111,0.417,0,0.641-0.111
		c0.278-0.138,0.808-0.5,1.251-0.862c0.585-0.474,1.031-0.864,1.338-1.142c0.165-0.138,0.307-0.278,0.39-0.196
		c0.082,0.085-0.058,0.223-0.363,0.503c-0.362,0.334-1.028,0.917-1.558,1.335c-0.557,0.445-1.476,1.113-2.393,1.113
		c-0.53,0-0.781-0.249-0.808-0.583c-0.027-0.307,0.138-0.699,0.39-1.004l-0.027-0.027c-0.725,0.639-2.005,1.556-3.061,1.614
		c-0.613,0.027-1.255-0.223-1.144-1.113c0.058-0.418,0.28-0.863,0.779-1.447l-0.024-0.027c-0.085,0.083-0.196,0.192-0.363,0.334
		c-0.111,0.08-0.196,0.139-0.253,0.08c-0.054-0.08,0.084-0.249,0.392-0.525c0.082-0.084,0.556-0.476,0.834-0.67
		c0.279-0.193,0.751-0.501,1.28-0.777c1.086-0.559,2.061-0.893,2.783-0.781c0.559,0.083,0.752,0.585,0.585,1.057
		C54.021,17.476,54.491,17.113,54.938,17.113z M50.094,19.146c-1.142,1.113-1.612,1.836-1.559,2.199
		c0.027,0.192,0.167,0.276,0.363,0.276c0.528,0,1.585-0.61,2.337-1.307c0.888-0.779,1.894-1.975,1.92-2.42
		c0.027-0.365-0.196-0.503-0.501-0.503C52.1,17.392,51.096,18.144,50.094,19.146z"/>
	<path fill="#3C2415" d="M71.002,10.656c0.39-0.111,0.975-0.223,1.476-0.25c1.753-0.111,3.534,0.388,3.228,2.086
		c-0.305,1.726-3.228,2.562-5.344,2.562c-1.558,0-3.2-0.361-4.203-1.113c-2.115,1.893-3.617,4.425-3.617,6.233
		c0,1.617,1.002,2.253,2.394,2.253c1.642,0,2.951-0.722,4.035-1.445c0.725-0.501,1.392-1.084,1.726-1.391
		c0.39-0.36,0.531-0.474,0.614-0.391c0.056,0.057-0.083,0.224-0.225,0.362c-0.668,0.612-1.39,1.253-2.003,1.671
		c-1.142,0.806-2.56,1.5-4.201,1.585c-2.313,0.084-3.927-0.752-4.009-2.809c-0.084-2.451,2.255-5.095,4.564-6.765
		c-0.39-0.501-0.695-1.113-0.695-1.754c0-1.558,1.335-2.588,2.838-2.588C68.914,8.902,70.252,9.569,71.002,10.656z M65.104,11.519
		c0,0.528,0.194,1.086,0.554,1.558c1.504-1.001,3.341-1.865,4.9-2.311c-0.863-0.948-2.033-1.503-3.2-1.503
		C66.159,9.264,65.104,10.128,65.104,11.519z M74.677,12.437c0.276-1.28-0.614-1.863-2.089-1.836c-0.417,0-1.141,0.14-1.474,0.279
		c0.222,0.391,0.417,1.03,0.471,1.531c0.058,0.445,0,0.722-0.083,0.695c-0.056-0.027-0.029-0.167-0.111-0.557
		c-0.11-0.557-0.417-1.198-0.668-1.529c-1.474,0.557-3.146,1.64-4.34,2.727c0.974,0.724,2.53,1.031,4.033,1.031
		C72.45,14.776,74.369,13.801,74.677,12.437z"/>
	<path fill="#3C2415" d="M75.798,17.864c0,0.362-0.67,0.948-1.282,1.671c-0.473,0.557-0.806,1.031-0.944,1.307
		c-0.142,0.25-0.142,0.446-0.03,0.53c0.111,0.085,0.307,0.054,0.615-0.111c0.306-0.168,0.806-0.472,1.25-0.834
		c0.613-0.474,0.948-0.75,1.309-1.084c0.194-0.196,0.362-0.28,0.419-0.225c0.081,0.083-0.114,0.251-0.336,0.474
		c-0.333,0.307-0.889,0.806-1.586,1.335c-0.585,0.445-1.56,1.113-2.478,1.113c-0.585,0-0.891-0.307-0.863-0.726
		c0.03-0.61,0.725-1.389,1.337-1.973c0.669-0.641,1.727-1.393,1.809-1.589c0.111-0.303-0.417-0.223-1.112-0.223
		c-0.279,0-0.501,0-0.643-0.054c-0.22,0.25-0.609,0.64-1.055,1.058c-0.474,0.444-0.808,0.75-1.113,1.029
		c-0.251,0.225-0.363,0.278-0.417,0.225c-0.057-0.058,0.028-0.196,0.304-0.445c0.336-0.307,0.585-0.53,1.087-1.002
		c0.389-0.364,0.752-0.726,0.975-0.975c-0.252-0.169-0.278-0.557,0-0.891c0.22-0.28,0.61-0.476,1.057-0.476
		c0.224,0,0.475,0.113,0.501,0.281c-0.195,0.138-0.305,0.223-0.474,0.389c-0.361,0.39-0.278,0.585,0.085,0.612
		c0.778,0.026,1.587,0.056,1.587,0.557V17.864z"/>
	<path fill="#3C2415" d="M80.949,20.677c0.53-0.362,1.169-0.863,1.699-1.335c0.166-0.142,0.249-0.168,0.305-0.111
		c0.055,0.08-0.056,0.222-0.223,0.36c-0.361,0.334-1.251,1.057-1.755,1.391c-1.166,0.777-2.198,1.142-3.144,1.142
		c-1.031,0-1.504-0.391-1.473-1.113c0.024-0.558,0.276-1.059,0.833-1.727l-0.027-0.027c-0.085,0.084-0.39,0.361-0.559,0.499
		c-0.139,0.111-0.223,0.142-0.278,0.084c-0.056-0.084,0.056-0.196,0.167-0.305c0.363-0.335,0.612-0.53,1.033-0.835
		c0.304-0.222,0.832-0.556,1.359-0.836c0.811-0.415,1.646-0.779,2.397-0.779h0.026c0.612,0,0.833,0.391,0.807,0.752
		c-0.056,0.724-0.946,1.28-1.78,1.698c-0.81,0.39-1.755,0.723-2.394,0.891c-0.112,0.222-0.169,0.472-0.169,0.639
		c0,0.418,0.222,0.641,0.644,0.641C78.777,21.705,79.725,21.51,80.949,20.677z M80.002,19.284c0.697-0.472,1.113-1.058,1.141-1.447
		c0.028-0.252-0.084-0.388-0.332-0.388c-0.252,0-0.668,0.276-1.227,0.806c-0.444,0.416-1.141,1.307-1.476,1.865
		C78.666,19.98,79.417,19.675,80.002,19.284z M80.753,12.16c0.195,0,0.253,0.138,0.306,0.276c0.307,0.726,0.892,1.727,1.393,2.395
		c0.056,0.083,0.141,0.196,0.056,0.25c-0.083,0.056-0.193-0.054-0.278-0.111c-0.501-0.419-1.476-1.252-1.836-1.866
		c-0.056-0.084-0.139-0.25-0.139-0.419c0-0.276,0.249-0.525,0.472-0.525H80.753z"/>
	<path fill="#3C2415" d="M86.017,17.113c0.529,0,0.694,0.305,0.694,0.612c0,0.334-0.223,0.695-0.581,1.198
		c-0.42,0.557-1.006,1.309-1.311,1.754l0.027,0.027c0.667-0.557,1.588-1.363,2.563-2.088c0.973-0.721,2.198-1.502,3.005-1.502
		c0.695,0,0.973,0.336,0.891,0.808c-0.085,0.445-0.612,1.029-1.086,1.585c-0.474,0.557-0.752,0.891-1.002,1.225l0.027,0.027
		c0.642-0.556,1.644-1.416,2.619-2.142c0.971-0.721,2.197-1.502,3.032-1.502c0.609,0,0.917,0.305,0.862,0.75
		c-0.083,0.502-0.669,1.142-1.112,1.698c-0.447,0.53-0.754,0.975-0.921,1.226c-0.222,0.334-0.222,0.526-0.111,0.61
		c0.14,0.111,0.447,0,0.667-0.111c0.334-0.166,0.726-0.39,1.336-0.862c0.475-0.363,1.033-0.864,1.339-1.142
		c0.166-0.138,0.277-0.25,0.361-0.167c0.055,0.056-0.028,0.167-0.224,0.363c-0.251,0.25-1.085,1.001-1.668,1.447
		c-0.56,0.418-1.643,1.113-2.507,1.113c-0.557,0-0.862-0.249-0.835-0.726c0.027-0.637,0.695-1.362,1.169-1.946
		c0.419-0.502,0.809-0.948,1.169-1.364c0.113-0.14,0.167-0.305,0.029-0.39c-0.14-0.084-0.447,0.027-0.726,0.167
		c-0.501,0.251-1.28,0.723-2.171,1.418c-1.225,0.947-1.892,1.588-3.116,2.533c-0.252,0.196-0.447,0.25-0.724,0.25
		c-0.445,0-0.529-0.081-0.362-0.445c0.279-0.584,0.975-1.557,1.476-2.169c0.474-0.583,0.976-1.086,1.169-1.364
		c0.11-0.14,0.14-0.333-0.029-0.39c-0.164-0.056-0.39,0.027-0.695,0.167c-0.502,0.251-1.335,0.752-2.172,1.418
		c-1.225,0.947-1.892,1.588-3.116,2.533c-0.249,0.196-0.417,0.25-0.722,0.25c-0.39,0-0.585-0.054-0.365-0.445
		c0.196-0.361,0.809-1.279,1.225-1.862c0.421-0.588,0.808-1.06,1.118-1.449c0.193-0.251,0.246-0.389,0.193-0.474
		c-0.085-0.111-0.252-0.053-0.419,0.029c-0.334,0.167-0.75,0.474-1.086,0.752c-0.361,0.306-0.808,0.697-1.198,1.058
		c-0.277,0.25-0.39,0.334-0.47,0.25c-0.058-0.084,0.08-0.222,0.417-0.53c0.332-0.305,0.945-0.89,1.444-1.278
		C84.875,17.449,85.434,17.113,86.017,17.113z"/>
	<path fill="#3C2415" d="M101.139,20.677c0.531-0.362,1.169-0.863,1.698-1.335c0.167-0.142,0.251-0.168,0.306-0.111
		c0.058,0.08-0.055,0.222-0.223,0.36c-0.361,0.334-1.25,1.057-1.754,1.391c-1.167,0.777-2.197,1.142-3.144,1.142
		c-1.03,0-1.503-0.391-1.477-1.113c0.029-0.558,0.278-1.059,0.835-1.727l-0.025-0.027c-0.086,0.084-0.391,0.361-0.56,0.499
		c-0.138,0.111-0.221,0.142-0.276,0.084c-0.056-0.084,0.056-0.196,0.166-0.305c0.361-0.335,0.611-0.53,1.031-0.835
		c0.306-0.222,0.833-0.556,1.362-0.836c0.808-0.415,1.641-0.779,2.396-0.779h0.027c0.611,0,0.835,0.391,0.806,0.752
		c-0.055,0.724-0.948,1.28-1.781,1.698c-0.806,0.39-1.754,0.723-2.394,0.891c-0.11,0.222-0.166,0.472-0.166,0.639
		c0,0.418,0.223,0.641,0.641,0.641C98.969,21.705,99.915,21.51,101.139,20.677z M100.193,19.284
		c0.697-0.472,1.113-1.058,1.142-1.447c0.025-0.252-0.084-0.388-0.334-0.388c-0.251,0-0.668,0.276-1.226,0.806
		c-0.445,0.416-1.14,1.307-1.472,1.865C98.858,19.98,99.61,19.675,100.193,19.284z"/>
	<path fill="#3C2415" d="M24.868,5.528c0.195,0,0.251,0.138,0.306,0.276c0.307,0.726,0.892,1.728,1.391,2.396
		c0.058,0.085,0.142,0.196,0.058,0.251c-0.083,0.055-0.194-0.056-0.278-0.111c-0.501-0.418-1.476-1.253-1.835-1.865
		c-0.058-0.083-0.142-0.252-0.142-0.418c0-0.278,0.251-0.528,0.474-0.528H24.868z"/>
</g>
</svg>
